<svg version="1" xmlns="http://www.w3.org/2000/svg" width="1008" height="1008" viewBox="0 0 756.000000 756.000000"><path d="M381 .7c-17.4 1.5-35.6 6.2-69 17.9-44 15.4-73.3 29.5-114.3 54.5-34.7 21.3-58.2 39.1-81.5 62.1C82.6 168 58.6 201 37.3 243.3 22 273.7 9.8 315.5 6.5 348.5c-.4 3.8-.9 7.9-1.1 9-1.5 8-2.1 38.6-1.1 58.6 2.3 45.5 17 102.7 36.2 140.9 15.4 30.6 43.2 69.4 68 94.9 30.2 31 61.7 52.5 105.5 71.8 28.2 12.4 68.9 23.7 100.5 27.8 2.8.4 6.4.8 8 1 15.4 2.1 27 2.8 51 3 15.4.1 32.3-.1 37.5-.5 63.3-5.3 107.2-18.6 154-46.8 10.8-6.5 30.5-19.5 32-21.2.3-.3 2.3-1.9 4.5-3.5 7.5-5.6 56.6-53.8 64.5-63.4 14.1-17 32.4-44.4 42.8-64.1 21.9-41.7 37.3-94.8 41.9-145.2 1-10.3 1-55.5.1-66.3-3.1-35.8-12.4-71.7-26.8-103.7-16-35.3-41.5-70.1-72.4-98.6-8.3-7.7-16.2-15.1-17.6-16.4-4-3.9-15.7-12.9-26.1-20.1-25.6-17.7-55.5-33-84.5-43.2l-5.1-1.8-1.8-7.5c-3-12.8-9.3-22.5-19.3-29.7-9.1-6.5-19.3-9.7-50.7-15.9-7.1-1.5-14.1-2.9-15.5-3.1-13.7-2.8-38.7-4.7-50-3.8zm39 129.2c49 10.3 110.4 41.6 143.1 72.9 38.8 37 64.6 92.8 71 153.7 1.4 13.5.6 41-1.6 55.5C621 486.6 575.2 553.2 508 593c-40.4 24-84.9 36.1-133 36.2-18.7 0-20.5-.1-41-2.8-98.7-13-176.1-78.6-202.9-171.9-3.8-13.1-7.7-32.3-8.6-42-.3-3.9-.9-8.8-1.1-11-1.2-8.5-.5-38.5 1.1-51 6.8-53.9 32-105.7 70-143.9 29.9-30.1 63.8-49.6 103.9-59.7 19.4-5 25.3-3.5 50.6 12.5 18.6 11.8 22 13.7 30.5 17.2 13 5.2 32 3.2 40.3-4.2l2.7-2.4-2.1-1.8c-1.2-.9-6-4.5-10.7-7.9-23-16.9-30-28.1-19.7-32 4.7-1.7 19.8-1 32 1.6z"/><path d="M473.8 198.7c-.9 1-8.5 15.7-17.1 32.8-8.5 17-17.2 34.6-19.5 39-2.2 4.4-7.2 14.5-11.1 22.5-3.9 8-8.4 15.9-9.9 17.6-3.7 4.2-11.3 8.9-17.6 11-7.4 2.5-9 3.8-11.6 9.6-1.2 2.9-3.3 7.5-4.5 10.3-1.2 2.7-3.9 9-6 13.8-2.1 4.8-3.9 8.6-4 8.5-.2-.2-3.1-7.7-6.6-16.8-3.4-9.1-6.8-17.4-7.5-18.4-.7-1-4.5-3.1-8.4-4.7-15-5.8-18-9.7-33.2-42.9-4.2-9.2-4-8.9-8.9-20-1.8-4.1-4-8.6-4.9-10-.9-1.4-2.7-4.8-3.9-7.5-1.3-2.8-6.6-13.9-11.9-24.8-9.5-19.6-9.5-19.7-12.8-19.7-4.4 0-6.6 2.3-5.9 6.2.3 1.7 3.3 10.1 6.6 18.7 5.3 13.7 18.7 48 20.9 53.6 2.5 6.1 29.1 74.6 34.1 87.5 1.6 4.1 7.3 18.9 12.7 32.9 9.6 24.7 9.8 25.6 8.4 28.5-4 7.8-.1 21.3 7.9 27.8 5.1 4.1 9.8 5.8 16.5 6.1 10.1.4 21.7-8.5 24.5-18.6 1.5-5.7.6-14.9-2.1-19.4l-2.1-3.6 3.2-8.1c1.7-4.5 3.8-9.5 4.5-11.1.7-1.7 2.9-7.1 4.9-12 2-5 4.3-10.4 5-12 .7-1.7 5.2-12.7 9.9-24.5 4.8-11.8 9.1-22.4 9.6-23.5.5-1.1 4.8-11.7 9.5-23.5 4.8-11.8 9.7-23.9 11.1-26.8 1.3-2.9 2.4-5.5 2.4-5.9 0-.3 1.1-3.1 2.4-6.2 8.4-19.2 24.6-60.4 24.6-62.5 0-2.6-3.2-5.6-6.1-5.6-.9 0-2.3.8-3.1 1.7zm-4.4 25.9c-4.7 11.5-9.7 23.8-11.1 27.4-1.3 3.6-3.1 7.8-3.8 9.5-.8 1.6-2.6 5.9-4 9.5-1.4 3.6-3.5 8.4-4.5 10.6-1.1 2.3-2.2 5.4-2.6 6.8-.3 1.4-1 2.9-1.5 3.2-.5.3-.9 1.2-.9 1.9 0 .8-1.1 3.8-2.4 6.7-1.3 2.9-6.9 16.5-12.4 30.3-5.5 13.7-13.5 33.3-17.7 43.5-4.2 10.2-9.2 22.5-11.2 27.5-1.9 4.9-4.4 11-5.5 13.4-1.9 4.3-1.9 4.4-.1 7 12.9 17.5-5.7 40.2-25.3 31-9.8-4.7-13.9-15.7-9.8-26.4 1.5-4 1.5-4.5-.5-8.8-1.2-2.5-2.1-4.9-2.1-5.2 0-.4-.6-2.1-1.4-3.8-1.8-4-12.5-31.5-16.4-42.2-1.7-4.4-7.6-19.7-13.2-34s-13.3-34.1-17.1-44c-3.9-9.9-9.6-24.8-12.9-33-7-17.9-12.8-32.7-14.6-37.5-.7-1.9-2.2-5.9-3.2-8.8-3.4-8.8-.9-5.8 4.5 5.5 12.4 25.9 17.3 36.4 17.3 37 0 .4.6 1.4 1.4 2.2.8.9 4.2 7.9 7.6 15.6 11.7 26.5 20.7 44.1 24.8 48.3 4.9 5 10.1 8.3 17.2 10.9 6.3 2.4 6.3 2.3 12.6 18.8 2.5 6.6 4.9 12.9 5.3 14 .5 1.1 2.1 5.1 3.6 8.8 1.5 3.8 3.1 6.5 3.5 6 .4-.4 2.2-4.4 4-8.8 1.8-4.4 4.1-9.9 5.1-12.3 1.1-2.3 2.7-6.1 3.8-8.5 1-2.3 2.9-6.7 4.2-9.7 3-7.4 4-8.4 11.2-11 12.3-4.5 19.8-11.1 25.3-22.2 41.6-83.6 50.9-101.9 51.1-101.1.2.5-3.5 10.4-8.3 21.9z"/><path d="M286.5 234.7c1.3 3.2 3.5 8.7 4.8 12.3 1.4 3.6 5.5 14.1 9.1 23.5 8.6 22 10.1 26 24.6 63.5 27.8 72 34.1 87.2 35.6 85.9.8-.6 1.4-1.7 1.4-2.3 0-1-4.9-14.3-7.1-19.1-2.9-6.5-20.8-53-20.5-53.3.2-.2.7.6 1.1 1.7.5 1.6 1.2 1.9 3.4 1.5 1.6-.3 3.1-.2 3.4.3.3.5-.3.9-1.5.9-3.2-.1-3.3 2.1-.1 2.7 1.5.3 3 .1 3.1-.4.5-1.3 3-1.1 3.5.3.8 2.4 4.2-.7 4.5-4.1.3-2.9.1-3.1-2.7-3.1-1.8 0-3.4.7-4 1.7-.9 1.6-1 1.6-1.1-.5 0-1.8.5-2.2 3-2.2 3.1 0 4-1.9 2.1-4.8-.6-1-1-1-2.1.3-1.5 1.8-3.5 2-2.3.2 1.1-1.8 1.2-3.6.3-4.2-.5-.3-1.1-.1-1.5.5-.9 1.5-2.5 1.2-2.5-.4 0-2.3-3.1-2.9-3.7-.6-.8 3-2.2 2.4-2-.8.2-2.1-.2-2.7-1.6-2.5-1.2 0-1.6-.4-1.3-1.3.5-1.4-1.8-4.4-3.4-4.4-1 0-.6 1.4 3.4 10.3 1.4 3.1 2.9 5.6 3.3 5.5 1.4-.3 6.3 1.4 6.3 2.2 0 .4-.7 1.3-1.6 2.1-1.4 1.1-1.5 1-1.2-.7.2-1.5-.3-1.9-2.8-1.9-2.9 0-3.3-.4-5.3-6-1.3-3.3-2.7-6.9-3.2-8-.5-1.1-1.6-4-2.4-6.4-1.7-4.9-1.5-4.9 5.5 1.8 1.9 1.9 6.7 5 10.6 6.8l7.1 3.4 2.8 7.2c1.5 4 3.6 9 4.5 11.2 1 2.2 5.5 13.2 10 24.5 13.8 34.2 14.7 36.3 16.5 37.2.9.6 1.8.8 2 .6.4-.4-2.9-9.8-5.6-16.3-.7-1.7-1.3-3.2-1.3-3.5-.2-.6-4.5-11.9-5.7-14.5-.4-1.1-2.7-7-5-13-7.2-19.4-12.1-31.9-13.1-34.2-.7-1.3-3.3-3-7-4.4-7-2.6-16.2-9.1-19.9-14-2.1-2.8-13.9-26-13.9-27.3 0-.2-3.1-6.8-6.9-14.7-6.8-14.2-11.1-23.5-17.7-37.7-4-8.6-5.3-9.6-1.9-1.5zM337 339c0 .5-.2 1-.4 1-.3 0-.8-.5-1.1-1-.3-.6-.1-1 .4-1 .6 0 1.1.4 1.1 1zm4.8 1.5c-.3.3-.9-.2-1.2-1.2-.6-1.4-.5-1.5.5-.6.7.7 1 1.5.7 1.8zM464.6 230.7c-.6 1.4-.5 1.5.5.6.7-.7 1-1.5.7-1.8-.3-.3-.9.2-1.2 1.2zM444.1 271.9c-21.8 44-23.6 46.6-35.3 52.3-4 2-8.5 3.9-9.9 4.3-2.3.6-3.4 2.3-7.4 12.3-2.7 6.4-5.6 13.5-6.6 15.7-9.1 20.5-10.8 25.4-9.8 28.9.6 2 1.4 3.6 1.8 3.6.4 0 2.5-4.3 4.6-9.5 3.5-8.6 4.1-9.4 6.1-8.9 1.5.4 2.3.1 2.6-1 .2-1 .7-1.3 1.7-.7 2.1 1.3.4 3.1-3 3.1-2.1 0-3.2.6-3.8 2.2-1.3 3.6-.2 5.8 3 5.8 2.7 0 3.3-.8 3-3.7-.1-.6.4-1.5 1-1.9.7-.4 1-.2.7.7-.7 1.9.8 4.6 3.2 5.9 1.8 1 2 .7 2-1.9 0-1.6-.7-3.7-1.6-4.5-.8-.9-1.1-1.6-.5-1.6.6 0 1.5.9 2.1 2.1 1.1 2 1.2 2 2.6.2 1.2-1.6 1.2-1.4.2 1.7-.6 1.9-1.4 3.9-1.9 4.5-.4.5-2.2 4.6-3.9 9-1.7 4.4-4.5 11.1-6.1 14.8-2.2 4.9-2.8 7.7-2.4 9.8.8 3.6 2.3 3.7 3.5.1.6-1.5 1.5-3.6 2-4.7s3.4-8.1 6.3-15.5c3-7.4 6-14.9 6.7-16.5 1.4-3.5 1.4-3.4 7.5-18.5 2.6-6.3 5.1-12.4 5.5-13.5.9-2.1 6.8-16.3 16-39 8.2-20.3 12.1-29.8 13.1-32 5.8-13.6 16.9-41.8 16.6-42.1-.2-.2-9 17.1-19.6 38.5zm-19 46.8c-.6 1-2.9 6.5-5.2 12.3-2.3 5.8-4.6 10.9-5.1 11.5-.6.6-.7.3-.2-.8.5-1.3.2-1.7-1.2-1.4-2.9.4-4.5 1.7-3.7 3 .4.7-.1.6-1-.2-2-1.6-1.6-2.2 2.5-3.7 2.3-.7 3.9-2.6 6.4-7.2 4-7.4 4.4-9.9 1.4-8-1.1.7-2 2.1-2 3 0 1-.3 1.7-.7 1.7-2.3-.4-2.9.4-2.7 3.3.1 1.8-.1 2.3-.3 1-.5-2.6-3.8-3-5.2-.5-.8 1.5-1.1 1.5-2.7.3-1.6-1.4-1.7-1.2-1.2 1.8.5 3.3-.8 4.4-1.8 1.7-.8-2.1-3.4 0-3.4 2.6 0 1.4.7 1.9 3 1.9 2.4 0 3 .4 3 2.2 0 2-.1 2.1-1.3.4-2-2.7-6.1-1.8-6.5 1.5-.4 3.4 2.3 5.7 4.8 4.2 1.4-1 2.2-.7 4.1 1.3 2.2 2.3 2.2 2.5.5 4.2-1.7 1.6-1.8 1.6-1.2-.3.7-2.6-.8-4.9-2.8-4.2-1.1.5-1.6 1.9-1.6 5.2 0 3.8.4 4.7 2.3 5.4 2.6 1 2.6 1 3.2-1.7.2-1.1.9-2.9 1.6-4.1 1.1-1.6 1.1-2.3.1-3.3-1.8-1.8-1.5-2.8.8-2.8 1.3 0 1.8-.5 1.4-1.5-.4-1.1-1.3-1.3-2.8-.9-1.2.4-1.7.3-1.3-.2 1.2-1.2 7.8-1.1 7.3.1-1.8 4.1-7.4 17.4-8 19-.7 1.8-.8 1.8-1.9-.5-1.4-2.8-4.6-3.8-5.8-1.9-.6 1-1.2.9-2.8-.5-2.2-2-2.9-5.6-1.1-5.6.6 0 1 .9 1 1.9 0 2.7 1.9 3.6 3.7 1.8 2.2-2.2 1-10.7-1.5-10.2-.9.2-2 .4-2.4.4-.5.1-.8 1.2-.8 2.5s-.7 2.9-1.5 3.6c-1.1.9-1.2 1.7-.5 3 1.4 2.6 1.2 3.3-.6 2.6-1.1-.4-1.4-.1-1.2 1.2.3 1.1 1.2 1.6 2.8 1.4 1.7-.2 2.1.1 1.4.8-.6.6-2.4.7-4.1.4l-3.1-.6 3.5-8.7c1.9-4.7 4.1-10 4.9-11.8.8-1.7 1.4-3.4 1.4-3.8 0-.3.9-2.6 2-4.9 1.7-3.8 2.9-4.8 9.2-7.8 4-1.9 9.6-5.5 12.3-8 5.2-4.8 6.4-5.3 4.6-2.1zM409 336.5c0 .8-.4 1.5-1 1.5-.5 0-.7-.7-.4-1.5.4-.8.8-1.5 1-1.5.2 0 .4.7.4 1.5zm-9.9 31.6c1.1 1.1 2.7 1.8 3.4 1.5.9-.3 1.2 0 .8 1-.6 1.6-2.3 1.9-2.3.3 0-.6-.9-.8-2-.4-2.7.9-3.9-.1-3.3-2.5.7-2.5.8-2.5 3.4.1z"/><path d="M340.3 354.6c-.3.8-.1 2.5.5 3.7.6 1.2 1.4 3.2 1.7 4.4.5 1.9 1 2.1 2.4 1.3 1-.5 2.1-.6 2.5-.3.3.3.6-1.7.6-4.6 0-3.8-.4-5.3-1.6-5.8-1.9-.7-3.4 1.3-2.9 4 .4 1.6.2 1.7-1.1.6-.9-.7-1.3-2.1-1.1-3.1.6-2.2-.1-2.4-1-.2z"/><path d="M349.9 355.1c-.6 1.3-.9 3.8-.5 6 .5 2.9.3 3.9-.7 3.9-2.5 0-4.6 3.3-3.6 5.7 1 2.8 2.1 2.9 4.4.3 2.4-2.7 3.5-2.5 3.5.5 0 2.2-.4 2.5-2.7 2.3-2.9-.3-4 1.6-2.4 4.2.8 1.2 1.3 1.1 3.1-.5l2.2-2-1.9 3.2c-1.4 2.5-1.5 3.5-.6 4.4 1.7 1.7 5.6-1.8 5-4.3-.3-1-.1-1.8.3-1.8.5 0 1 1.2 1.2 2.7.2 2.2.9 2.9 3 3.1 2.2.3 2.9-.2 3.4-2.2 1-4.1-.1-5.6-4.1-5.6-2.9 0-3.6-.4-3.3-1.7.2-.9.9-1.8 1.6-2.1.7-.2 1.1.2 1 .8-.2.7.5 1.4 1.5 1.5 1.9.4 2.4-2.4.6-4.2-.9-.9-1.6-.9-3 0s-2.1.9-3 0c-.9-.9-.7-1.1.8-.7 1.9.5 4.1-1.1 3-2.2-1.1-1.1-5.2-1.3-6.4-.3-.9.8-1.3.8-1.3 0 0-.6.6-1.4 1.4-1.7 2-.8 3.2-9.4 1.4-10.5-2-1.3-2.6-1.1-3.9 1.2z"/><path d="M355.3 362c0 1.7.1 2.9.1 2.7.1-.1.7-.9 1.4-1.8 1-1.3 1-1.9-.1-2.8-1.1-.8-1.4-.5-1.4 1.9zM382.6 381.7c-.4.9.1 2.8 1 4.2 1.7 2.6 1.7 2.6-.3.8-2.1-1.9-3.8-2.3-2.8-.7.3.5.2 1-.3 1-1.5 0-2.3 5.9-1.2 8.1.6 1.1 2.1 1.9 3.5 1.9 1.3 0 2.6.4 3 1 .3.6 1.5.5 3-.2 2.1-.9 2.3-1.4 1.2-2.6-1-1.3-.9-1.5.5-.9 1.8.6 4.4-2.4 3.1-3.7-1.2-1.2-3.3-.6-3.3 1 0 1.4-.3 1.4-1.5.4-2-1.6-.9-2.7 3-3.2 2.6-.3 3-.8 3.3-3.6.3-3.1.2-3.3-2.5-3-2 .2-2.9.9-3.1 2.5-.2 1.3-.7 2.3-1.1 2.3-.5 0-.6-1-.4-2.3.6-2.9-4.1-5.7-5.1-3zm.8 7.9c2 .8 2.1 4.4.1 4.4-1.6 0-3.8-3.4-2.8-4.4.8-.7.8-.7 2.7 0zM362.7 383.8c-2.1 1.3-2.7 2.2-2.2 3.9.3 1.3.1 2.3-.4 2.3-.4 0-1.1-1.4-1.4-3-.5-2.4-1.2-3-3.2-3-1.5 0-2.5.6-2.6 1.5-.1.8-.2 2.1-.3 2.7-.4 2.3 1.6 3.8 5 3.8 3.6 0 4.8 2.3 1.8 3.4-1.1.4-1.5.2-1.1-.7.3-.8-.4-1.4-2-1.5-1.9-.1-2.4.2-1.9 1.4.3.9.6 2 .6 2.6 0 .6 1.2.8 3 .5 1.6-.4 3.2-.2 3.5.3.3.5 0 .7-.8.4-.8-.3-2 .2-2.7 1.1-1.2 1.5-.4 2 2.3 1.6 1-.1.9.6-.5 2.8-.9 1.5-.9 2.3.2 3.6.8.9 1.5 2.4 1.6 3.2.4 2.4 2.2 3.9 3.4 2.7 1.4-1.4 1.6-9.2.3-10.5-1.4-1.4-3.7 2.5-2.8 4.4.4.6-.1.3-.9-.8-1.5-1.8-1.5-2.1.8-4.4 2.1-2.1 2.7-2.2 4.1-1.1 1.2 1 2.1 1 4 .2 3.1-1.4 3.3-4.7.3-6.3-1.8-1-2.4-.8-3.9 1-1.9 2.3-3.9 2.8-3.9.8 0-2.2 1.8-4 3.4-3.4 2.4 1 4-2.7 1.9-4.4-1.3-1.1-1.7-1.1-2-.2-.3.7-.9 1.3-1.4 1.3-.5 0-.3-1 .5-2.3.8-1.2 1.1-3 .7-3.9-.6-1.6-.8-1.6-3.4 0zM382.4 399.4c-.4 1 .2 3.5 1.2 5.8 1.5 3.3 1.9 3.7 2.5 2.2.3-1.1.5-2.2.2-2.7-.2-.4 0-.7.5-.7 1.6 0 2.4-3.2 1.2-4.4-.7-.7-1.1-.7-1-.1.4 2.1 0 3.5-1.1 3.5-.6 0-.9-.6-.6-1.4.3-.8-.1-2-.8-2.6-1.2-1-1.6-.9-2.1.4z"/><path d="M370.7 402.7c-2.4.6-3.5 3.9-2.9 8.6.3 3.1.7 3.5 1.8 2.6.8-.6 1.4-2.5 1.4-4.1v-2.9l2.5 2.6c3.9 3.8 4.6 3 2.2-2.5-1.1-2.8-2.3-4.9-2.6-4.9-.4.1-1.4.3-2.4.6zM372 417c-2.1 1.3-.5 2.3 3.5 2.3 5.7 0 6.3-2.2.8-2.9-1.6-.2-3.5.1-4.3.6zM384 421.4c0 1.8 4.9 5.8 6.1 5 1.2-.7-.7-4.1-3.1-5.4-2.5-1.3-3-1.3-3 .4zM362.7 422.8c-1.8 1.9-2.3 4.2-.9 4.2.9-.1 3.4-2.1 5.1-4.3 1.2-1.5 1.1-1.7-.6-1.7-1.1 0-2.7.8-3.6 1.8zM373.7 424.6c-1.3 1.3-.7 3.6.7 3.1.7-.3 1.8-.1 2.3.4.7.7 1.2.3 1.6-1 .3-1.2.1-2.1-.3-2.1-.5 0-1.5-.2-2.2-.5-.8-.3-1.7-.2-2.1.1zM368.8 427.1c-2.2 1.2-2.3 3.5-.3 4.3.9.3 1.5 0 1.5-.9s.6-1.2 1.6-.8c1.4.5 1.5.3.5-1.5-.7-1.2-1.3-2.2-1.4-2.2-.1 0-1 .5-1.9 1.1zM379.6 426.7c-1 1-.7 3.5.4 2.8.6-.3 1 .1 1 .9 0 1.8.8 2 2.9.7.7-.5 1-1.4.7-2-1-1.6-4.2-3.1-5-2.4zM358.6 430.9c-.9 1.4-1.1 6.9-.3 7.7 1.1 1.2 2.7-.8 2.7-3.4 0-3.4-1.5-5.9-2.4-4.3zM374.5 431.9c-.6 1.1.9 2.3 1.9 1.4.9-.9.7-2.3-.3-2.3-.6 0-1.2.4-1.6.9zM390.2 434.7c.4 4.4 2.4 5.5 3 1.5.5-3.7 0-5.2-1.8-5.2-1.1 0-1.4 1-1.2 3.7zM365.9 432.7c0 .5-.2 1.6-.4 2.5-.4 2.2.8 3 3 2.2 1.3-.5 1.4-.9.3-1.5-1.1-.8-1.1-1 0-1.8 1.1-.6 1-1-.3-1.5-2.1-.8-2.5-.8-2.6.1zM382.5 432.9c-.3.6-.1 1.1.6 1.1.8 0 .9.3 0 1.3-1.2 1.5-.5 2.7 1.6 2.7 1 0 1.3-.9 1.1-2.7-.3-2.8-2.2-4.1-3.3-2.4zM377.4 434.1c-.3.6-.1 1.6.5 2.2.8.8 1.1.5 1.1-1.1 0-2.4-.5-2.8-1.6-1.1zM372 435c0 .5.5 1 1 1 .6 0 1-.5 1-1 0-.6-.4-1-1-1-.5 0-1 .4-1 1zM374.5 437.1c-1 1.5.3 2.5 1.6 1.2.7-.7.7-1.3.1-1.7-.6-.3-1.4-.1-1.7.5zM368.3 438.7c-1.9.7-1.5 3.1.7 4.3 1.5.8 2.1.6 3-1 .8-1.6.8-1.8-.4-1.4-.8.3-1.6-.1-1.8-.9-.1-.8-.9-1.2-1.5-1zM381 439.5c0 .9-.4 1.3-1 1-.5-.3-1 .1-1 .9 0 2.5 2.1 2.9 4.2.8l2-2-2.1-1.1c-1.7-1-2.1-.9-2.1.4zM373.7 441.6c-.4.4-.7 1.6-.7 2.6 0 2.4 4.4 1.8 4.9-.7.2-1.3-.1-1.6-1.2-1.2-.9.3-1.7.1-1.9-.4-.2-.6-.7-.7-1.1-.3zM361 444.3c0 1.4 4.1 5.7 5.3 5.7 1.4 0 .6-2.7-1.3-4.8-2.3-2.5-4-2.8-4-.9zM386.9 444.6c-3.9 2-5.2 6.5-1.5 5.1 1.6-.6 5.1-5.5 4.5-6.1-.2-.3-1.6.2-3 1zM371.5 451c-.3.5 0 1.3.9 1.6 2.1.8 7.1.1 7.1-1.1 0-1.4-7.2-1.9-8-.5z"/></svg>